<svg width="1174" height="269" viewBox="0 0 1174 269" fill="none" xmlns="http://www.w3.org/2000/svg">
<path d="M73.3271 121.585L72.3506 146.487C72.3506 150.963 73.4085 157.596 75.5244 166.385C77.7217 175.092 78.8203 181.521 78.8203 185.672C78.8203 189.904 79.512 195.804 80.8955 203.372C82.279 210.94 82.9707 217.003 82.9707 221.561C82.9707 226.199 80.9769 228.519 76.9893 228.519C73.083 228.519 71.1299 226.24 71.1299 221.683C71.1299 217.207 71.8216 211.185 73.2051 203.616C74.6699 196.129 75.4023 190.514 75.4023 186.771C75.4023 183.027 74.1003 179.609 71.4961 176.517C68.8919 173.506 65.7995 172 62.2188 172C54.0807 172 50.0117 181.888 50.0117 201.663C50.0117 206.302 50.6221 213.26 51.8428 222.537C53.0635 231.814 53.6738 238.162 53.6738 241.58C53.6738 248.253 51.68 251.59 47.6924 251.59C45.6579 251.59 44.071 250.695 42.9316 248.904C41.8737 247.195 41.3447 244.713 41.3447 241.458C41.3447 238.203 42.0365 232.262 43.4199 223.636C44.8848 215.009 45.6172 208.743 45.6172 204.837C45.6172 200.931 45.373 197.228 44.8848 193.729C44.4779 190.311 43.6641 186.608 42.4434 182.62C41.304 178.714 39.4323 175.54 36.8281 173.099C34.3053 170.657 31.0094 169.437 26.9404 169.437C22.9528 169.437 19.3314 171.186 16.0762 174.686C12.9023 178.185 11.3154 181.481 11.3154 184.573C11.3154 187.747 11.8851 191.043 13.0244 194.461C14.1637 197.879 14.7334 200.524 14.7334 202.396C14.7334 205.976 13.3906 207.767 10.7051 207.767C8.10091 207.767 6.79883 205.976 6.79883 202.396L9.72852 182.864L9.60645 27.4688C9.60645 17.8659 6.67676 9.84993 0.817383 3.4209L3.25879 0.979492C9.76921 6.75749 17.7852 9.64648 27.3066 9.64648H168.176C177.697 9.64648 185.713 6.75749 192.224 0.979492L194.665 3.4209C188.887 9.93132 185.998 17.2555 185.998 25.3936C185.998 33.5316 186.527 39.8385 187.585 44.3145C188.643 48.7904 191.003 53.1035 194.665 57.2539L192.224 59.6953C187.91 53.9173 182.539 51.0283 176.11 51.0283H83.459C78.9017 51.0283 74.9954 49.4821 71.7402 46.3896L69.4209 48.709C72.5133 51.9642 74.0596 55.9111 74.0596 60.5498C74.0596 65.1885 72.5133 69.1354 69.4209 72.3906L71.7402 74.71C74.4258 72.1058 77.6403 70.4375 81.3838 69.7051C85.2087 68.9727 89.7253 68.6064 94.9336 68.6064L141.32 71.1699C148.889 71.1699 155.562 70.5189 161.34 69.2168C167.199 67.9147 172.204 65.2699 176.354 61.2822L178.796 63.7236C172.692 70.3968 169.641 79.6335 169.641 91.4336C169.641 103.234 172.448 112.063 178.063 117.923L175.5 120.364C168.094 113.772 156.132 110.477 139.611 110.477L93.957 113.04C82.8079 113.04 75.1989 111.006 71.1299 106.937L68.8105 109.378C71.8216 112.47 73.3271 116.539 73.3271 121.585ZM281.457 237.796L282.8 205.325C282.8 194.827 282.393 188.195 281.579 185.428C280.847 182.661 280.074 180.219 279.26 178.104C278.446 175.988 277.388 174.279 276.086 172.977C274.784 171.674 273.238 170.454 271.447 169.314C268.029 167.036 262.658 165.896 255.334 165.896C248.01 165.896 241.825 168.867 236.779 174.808C231.815 180.748 229.333 187.869 229.333 196.17C229.333 199.262 229.943 203.86 231.164 209.964C232.385 216.149 232.995 220.787 232.995 223.88C232.995 229.739 230.92 232.669 226.77 232.669C222.619 232.669 220.544 229.821 220.544 224.124C220.544 220.95 221.154 216.189 222.375 209.842C223.677 203.494 224.328 198.693 224.328 195.438L225.183 162.723V19.29C225.183 14.2445 223.596 10.1755 220.422 7.08301L222.863 4.51953C226.281 7.77474 230.35 9.40234 235.07 9.40234H279.26C284.143 9.40234 288.212 7.77474 291.467 4.51953L293.908 7.08301C290.734 10.2568 289.147 14.3258 289.147 19.29V162.112C289.147 166.344 288.7 173.628 287.805 183.963C286.91 194.38 286.625 202.396 286.95 208.011H286.828C289.839 221.52 291.345 231.814 291.345 238.895C291.345 245.975 290.002 249.515 287.316 249.515C283.41 249.515 281.457 245.608 281.457 237.796ZM503.259 139.773L502.771 155.643C502.771 164.513 504.561 170.739 508.142 174.319L505.578 176.761C502.486 173.587 498.417 172 493.371 172H457.849C457.93 173.139 457.971 174.645 457.971 176.517C457.971 181.074 456.831 183.353 454.553 183.353C452.274 183.353 451.135 180.789 451.135 175.662C451.135 174.116 451.175 172.895 451.257 172H342.004C340.051 172 338.342 175.499 336.877 182.498C335.493 189.578 334.802 195.234 334.802 199.466C334.802 203.698 335.778 211.266 337.731 222.171C339.685 233.157 340.661 241.702 340.661 247.806C340.661 253.991 338.26 257.083 333.459 257.083C328.251 257.083 325.646 253.909 325.646 247.562C325.646 241.214 326.745 232.384 328.942 221.072C331.14 209.842 332.238 201.378 332.238 195.682L332.116 19.29C332.116 14.3258 330.489 10.2568 327.233 7.08301L329.797 4.51953C333.133 7.77474 337.202 9.40234 342.004 9.40234H385.705C390.669 9.40234 394.738 7.77474 397.912 4.51953L400.476 7.08301C397.22 10.2568 395.593 14.3258 395.593 19.29V119.998C395.593 124.881 394.006 128.909 390.832 132.083L393.396 134.646C397.546 130.496 406.62 128.421 420.617 128.421L478.479 131.351C492.395 131.351 501.428 129.275 505.578 125.125L508.142 127.566C504.886 130.74 503.259 134.809 503.259 139.773ZM458.703 226.199C458.703 229.536 457.32 231.204 454.553 231.204C451.786 231.204 450.402 229.21 450.402 225.223C450.402 221.723 451.053 217.41 452.355 212.283C453.739 207.238 454.471 204.511 454.553 204.104C454.715 204.918 455.122 206.587 455.773 209.109C456.424 211.632 456.913 213.585 457.238 214.969C458.215 219.119 458.703 222.863 458.703 226.199ZM526.574 41.0186L527.185 25.3936C527.185 16.4417 525.435 10.2568 521.936 6.83887L524.377 4.39746C527.632 7.57129 531.66 9.1582 536.462 9.1582H696.74C701.704 9.1582 705.773 7.57129 708.947 4.39746L711.389 6.83887C708.296 9.93132 706.75 14.0003 706.75 19.0459L706.14 34.6709C706.14 43.46 707.889 49.6042 711.389 53.1035L708.947 55.667C705.285 51.9235 699.344 50.0518 691.125 50.0518L664.147 51.7607C655.603 51.7607 649.458 49.889 645.715 46.1455L643.151 48.5869C646.325 51.6794 647.912 55.7484 647.912 60.7939V162.112C647.912 170.576 648.645 183.19 650.109 199.954C651.656 216.718 652.429 227.745 652.429 233.035C652.429 242.312 650.76 246.951 647.424 246.951C644.087 246.951 642.419 243.655 642.419 237.063C642.419 230.472 642.948 221.52 644.006 210.208C645.145 198.978 645.715 190.514 645.715 184.817C645.715 175.947 643.965 171.512 640.466 171.512C638.757 171.512 637.414 172.529 636.438 174.563C635.461 176.598 634.973 178.592 634.973 180.545L637.78 206.058C637.78 211.917 636.112 214.847 632.775 214.847C631.066 214.847 629.805 213.992 628.991 212.283C628.177 210.574 627.771 208.58 627.771 206.302C627.771 204.023 628.503 200.28 629.968 195.071C631.433 189.944 632.165 185.753 632.165 182.498C632.165 179.243 630.741 176.761 627.893 175.052C625.126 173.343 621.586 172.488 617.272 172.488C613.041 172.488 608.605 173.343 603.967 175.052C599.41 176.761 595.381 179.406 591.882 182.986C588.382 186.648 586.633 190.229 586.633 193.729C586.633 197.309 587.162 201.622 588.22 206.668C589.359 211.714 589.929 215.905 589.929 219.241C589.929 222.659 588.423 224.368 585.412 224.368C581.994 224.368 580.285 222.537 580.285 218.875C580.285 215.294 580.936 210.737 582.238 205.203C583.54 199.669 584.191 195.519 584.191 192.752V161.014C584.354 116.417 584.436 83.0107 584.436 60.7939C584.436 55.667 585.982 51.598 589.074 48.5869L586.633 46.1455C583.052 49.8076 577.111 51.6387 568.811 51.6387L542.565 50.0518C534.183 50.0518 528.12 51.9235 524.377 55.667L521.936 53.1035C525.028 50.0111 526.574 45.9827 526.574 41.0186ZM631.799 233.279C633.752 242.231 634.729 250.003 634.729 256.595C634.729 259.443 633.711 260.867 631.677 260.867C629.642 260.867 628.625 259.565 628.625 256.961C628.625 249.637 629.683 241.743 631.799 233.279ZM872.399 53.1035L874.353 25.2715C874.353 16.9707 872.44 10.9079 868.615 7.08301L871.057 4.51953C874.393 7.77474 878.462 9.40234 883.264 9.40234H926.354C931.237 9.40234 935.306 7.77474 938.562 4.51953L941.003 7.08301C937.829 10.2568 936.242 14.3258 936.242 19.29V162.112C936.242 166.995 937.829 171.064 941.003 174.319L938.562 176.761C935.388 173.587 931.319 172 926.354 172H883.264C878.299 172 874.23 173.587 871.057 176.761L868.615 174.319C871.708 171.227 873.254 167.158 873.254 162.112L873.01 121.097C873.01 116.214 874.556 112.186 877.648 109.012L875.207 106.57C872.115 109.663 868.046 111.209 863 111.209H812.951C807.987 111.209 803.918 109.663 800.744 106.57L798.303 109.012C798.465 110.883 798.547 120.73 798.547 138.553V193.606C798.547 201.012 799.483 211.51 801.354 225.101C803.226 238.691 804.162 248.294 804.162 253.909C804.162 259.524 803.47 263.349 802.087 265.384C800.785 267.418 799.198 268.436 797.326 268.436C795.454 268.436 793.827 267.418 792.443 265.384C791.141 263.431 790.49 261.396 790.49 259.28C790.49 257.246 790.897 252.485 791.711 244.998C794.152 222.374 795.373 205.366 795.373 193.973C795.373 188.357 793.664 183.475 790.246 179.324C783.573 171.268 774.418 167.239 762.78 167.239C756.84 167.239 751.835 168.623 747.766 171.39C743.778 174.157 741.784 177.981 741.784 182.864C741.784 187.828 742.557 195.071 744.104 204.593C745.731 214.114 746.545 220.706 746.545 224.368C746.545 231.937 744.185 235.721 739.465 235.721C737.268 235.721 735.396 234.866 733.85 233.157C732.303 231.53 731.53 228.803 731.53 224.979C731.53 221.235 732.832 214.48 735.437 204.715C738.122 194.949 739.465 187.34 739.465 181.888V19.29C739.465 14.1631 737.919 10.0941 734.826 7.08301L737.146 4.51953C740.482 7.77474 744.551 9.40234 749.353 9.40234H793.176C797.977 9.40234 802.006 7.77474 805.261 4.51953L807.824 7.08301C804.081 10.8265 802.209 16.93 802.209 25.3936L804.04 53.4697C804.04 61.8519 802.128 67.9554 798.303 71.7803L800.744 74.3438C803.918 71.1699 807.987 69.583 812.951 69.583H863.488C868.452 69.583 872.481 71.1699 875.573 74.3438L878.137 71.7803C874.312 67.874 872.399 61.6484 872.399 53.1035ZM1046.11 215.213L1047.45 191.287C1047.45 177.615 1045.74 170.779 1042.32 170.779C1038.9 170.779 1037.19 175.092 1037.19 183.719V187.259C1037.19 190.758 1037.97 195.966 1039.51 202.884C1041.14 209.801 1041.96 215.05 1041.96 218.631C1041.96 224.165 1039.88 226.932 1035.73 226.932C1031.66 226.932 1029.63 224.165 1029.63 218.631C1029.63 214.887 1030.48 209.435 1032.19 202.273C1033.9 195.112 1034.75 189.66 1034.75 185.916L1034.51 136.111C1034.51 133.589 1034.83 131.635 1035.49 130.252C1036.22 128.868 1037.68 127.851 1039.88 127.2L1038.66 122.562C1037.52 122.887 1036.5 123.05 1035.61 123.05C1034.79 123.05 1033.94 122.765 1033.04 122.195C1031.99 121.463 1030.77 119.998 1029.38 117.801L967.492 16.9707C965.051 12.9831 961.714 9.72786 957.482 7.20508L958.581 5.12988C962.65 7.40853 967.248 8.54785 972.375 8.54785L1021.57 8.30371C1026.45 8.30371 1029.91 6.55404 1031.95 3.05469L1035.73 5.12988C1034.67 7.08301 1034.14 9.23958 1034.14 11.5996C1034.14 13.8783 1035.77 17.8252 1039.03 23.4404C1042.36 29.0557 1045.98 34.5081 1049.89 39.7979C1053.88 45.0876 1057.5 50.9469 1060.75 57.376C1064.09 63.805 1065.76 69.3796 1065.76 74.0996H1068.32V73.123C1068.32 65.4733 1073.61 54.3242 1084.19 39.6758C1094.77 25.0273 1100.06 15.221 1100.06 10.2568C1100.06 8.95475 1099.49 7.24577 1098.35 5.12988L1102.14 3.05469C1104.17 6.55404 1107.67 8.30371 1112.63 8.30371L1158.9 8.54785C1163.94 8.54785 1168.5 7.40853 1172.57 5.12988L1173.67 7.20508C1169.27 9.80924 1165.9 13.0645 1163.54 16.9707L1101.04 117.801C1098.92 121.3 1096.76 123.05 1094.57 123.05C1093.67 123.05 1092.74 122.887 1091.76 122.562L1090.29 127.078C1094.2 128.299 1096.15 132.368 1096.15 139.285L1095.42 156.253C1095.42 164.065 1097.13 169.681 1100.55 173.099L1097.99 175.54C1094.81 172.366 1090.78 170.779 1085.9 170.779H1057.34C1052.13 170.779 1049.52 178.144 1049.52 192.874L1051.35 215.579C1051.35 218.427 1050.46 219.852 1048.67 219.852C1046.96 219.852 1046.11 218.305 1046.11 215.213Z" fill="black"/>
</svg>
